<svg width="52" height="52" viewBox="0 0 52 52" fill="currentColor" xmlns="http://www.w3.org/2000/svg">
<g clip-path="url(#clip0_158_86)">
<path d="M23.9641 32.4445C24.7156 33.1757 25.0752 34.1274 24.9787 35.1267C24.8791 36.1586 24.283 37.1265 23.3852 37.7135C22.7595 38.1238 22.0242 38.3686 21.2595 38.4397V40.1551C21.2595 40.604 20.8959 40.9666 20.448 40.9666C20.0001 40.9666 19.6365 40.603 19.6365 40.1551V38.329C19.5207 38.3026 19.4059 38.2721 19.2912 38.2366C17.8023 37.7806 16.6201 36.6634 15.962 35.0902C15.7893 34.6768 15.9843 34.2005 16.3977 34.0278C16.811 33.8552 17.2873 34.0502 17.46 34.4635C18.0602 35.8986 19.0464 36.4633 19.7665 36.6837C20.7019 36.9701 21.748 36.8442 22.4965 36.3546C22.987 36.0337 23.311 35.5167 23.3638 34.9703C23.3973 34.6179 23.3334 34.0959 22.8327 33.6084C22.4355 33.2224 21.6393 33.0345 20.7963 32.8355C19.6192 32.5572 18.2847 32.2413 17.3188 31.2501C16.5287 30.4417 16.2098 29.2219 16.486 28.0671C16.7704 26.8799 17.6195 25.9658 18.8169 25.5596C19.084 25.4692 19.3582 25.4011 19.6365 25.3534V23.5811C19.6365 23.1322 20.0001 22.7696 20.448 22.7696C20.8959 22.7696 21.2595 23.1332 21.2595 23.5811V25.3188C21.8668 25.396 22.4487 25.5738 22.9566 25.851C23.9052 26.369 24.542 27.1876 24.7969 28.2164C24.9045 28.6511 24.6395 29.0919 24.2048 29.1996C23.7701 29.3072 23.3293 29.0421 23.2216 28.6074C23.0764 28.0224 22.726 27.5745 22.1786 27.276C21.3945 26.8474 20.2794 26.7773 19.3389 27.0962C18.438 27.4019 18.1537 28.0722 18.0653 28.4439C17.918 29.0614 18.0775 29.7013 18.4817 30.1156C19.1185 30.7697 20.1616 31.0165 21.1701 31.2552C22.1898 31.4969 23.245 31.7467 23.9641 32.4445ZM48.1177 48.1308C45.5339 50.7146 42.1387 52.0064 38.7434 52.0064C35.9322 52.0064 33.1209 51.1198 30.7698 49.3475C27.6437 51.0832 24.088 51.9983 20.447 51.9983C9.18164 51.9993 0.015625 43.3167 0.015625 32.6446C0.015625 24.1194 6.05555 15.5567 15.1241 11.1174L12.2884 4.55338C11.7116 3.22189 12.0447 1.67713 13.1182 0.71127C14.0353 -0.119512 15.3556 -0.229199 16.3997 0.441113L17.0974 0.885957C17.4712 1.12564 17.8998 1.12564 18.2735 0.885957L18.9865 0.432988C19.8863 -0.142871 21.0076 -0.142871 21.9095 0.434004L22.6173 0.885957C22.9911 1.12463 23.4197 1.12463 23.7924 0.885957L24.4932 0.439082C25.5383 -0.229199 26.8576 -0.119512 27.7747 0.712285C28.8462 1.67611 29.1793 3.22088 28.6024 4.55236L25.7668 11.1153C32.1429 14.2414 37.2139 19.5552 39.5133 25.526C42.6475 25.7068 45.7289 26.9906 48.1177 29.3793C53.2872 34.5509 53.2872 42.9613 48.1177 48.1308ZM16.876 11.0788C17.9363 11.3743 19.1602 11.5297 20.447 11.5297C21.7317 11.5297 22.9545 11.3743 24.0148 11.0788L27.1115 3.91049C27.4111 3.21783 27.2405 2.41854 26.6859 1.91986C26.3102 1.57963 25.7932 1.53697 25.3656 1.81018L24.6648 2.25705C23.764 2.83393 22.6427 2.83393 21.7409 2.25705L21.033 1.8051C20.6592 1.56643 20.2306 1.56643 19.8579 1.8051L19.1449 2.25807C18.2451 2.83393 17.1238 2.83393 16.222 2.25705L15.5232 1.81119C15.0956 1.53697 14.5787 1.57963 14.2049 1.91783C13.6484 2.41854 13.4777 3.21783 13.7773 3.91049L16.876 11.0788ZM29.4505 48.211C29.423 48.1846 29.3956 48.1582 29.3682 48.1308C24.1987 42.9613 24.1987 34.5499 29.3682 29.3803C31.7062 27.0444 34.7053 25.7637 37.7684 25.5403C35.4975 20.131 30.784 15.3434 24.9045 12.5037C23.5984 12.9282 22.0598 13.1527 20.447 13.1527C18.8321 13.1527 17.2924 12.9272 15.9863 12.5037C7.38195 16.6546 1.63961 24.6831 1.63961 32.6446C1.63961 42.421 10.0764 50.3753 20.447 50.3753C23.6076 50.3753 26.6961 49.6288 29.4505 48.211ZM46.97 30.529C44.7803 28.3393 41.9274 27.2079 39.0512 27.1317C38.9709 27.1429 38.8917 27.1409 38.8135 27.1287C38.7902 27.1287 38.7668 27.1277 38.7434 27.1277C35.7636 27.1277 32.7848 28.2611 30.5148 30.529C25.9791 35.0648 25.9791 42.4463 30.5148 46.9821C30.7748 47.2421 31.045 47.4869 31.3223 47.7164C31.3477 47.7347 31.372 47.756 31.3954 47.7774C35.9616 51.4986 42.7166 51.2335 46.968 46.9821C51.5058 42.4463 51.5058 35.0658 46.97 30.529ZM48.2619 38.7566C48.2619 41.3099 47.2737 43.7027 45.4801 45.4942C43.6885 47.2878 41.2957 48.275 38.7434 48.275C36.1912 48.275 33.7984 47.2868 32.0048 45.4942C30.2112 43.7027 29.223 41.3088 29.223 38.7566C29.223 36.2033 30.2112 33.8105 32.0048 32.0179C33.7984 30.2243 36.1912 29.2371 38.7434 29.2371C41.2957 29.2371 43.6875 30.2243 45.4801 32.0179C47.2747 33.8105 48.2619 36.2033 48.2619 38.7566ZM46.6389 38.7566C46.6389 36.638 45.8203 34.6524 44.3334 33.1666C42.8476 31.6797 40.863 30.8611 38.7455 30.8611C36.6269 30.8611 34.6413 31.6797 33.1545 33.1666C31.6676 34.6524 30.849 36.637 30.849 38.7566C30.849 40.8752 31.6676 42.8607 33.1545 44.3456C34.6413 45.8324 36.6269 46.6521 38.7455 46.6521C40.8641 46.6521 42.8486 45.8335 44.3334 44.3466C45.8193 42.8597 46.6389 40.8752 46.6389 38.7566ZM39.2634 38.0771C38.648 37.9319 38.067 37.7948 37.7319 37.4495C37.5541 37.2667 37.482 36.966 37.5501 36.6847C37.6009 36.4755 37.7451 36.1972 38.1483 36.0611C38.652 35.8905 39.2675 35.9271 39.6798 36.1535C39.947 36.2998 40.1095 36.508 40.1795 36.7903C40.2862 37.226 40.7259 37.4911 41.1616 37.3845C41.5973 37.2778 41.8634 36.8381 41.7558 36.4024C41.577 35.6742 41.1291 35.0953 40.4598 34.7286C40.1765 34.5732 39.8586 34.4635 39.5255 34.3985C39.5438 34.3315 39.5539 34.2614 39.5539 34.1893V33.5759C39.5539 33.127 39.1903 32.7644 38.7424 32.7644C38.2945 32.7644 37.9309 33.128 37.9309 33.5759V34.1893C37.9309 34.2716 37.9431 34.3518 37.9665 34.427C37.8517 34.4534 37.738 34.4849 37.6273 34.5235C36.7782 34.8119 36.1749 35.4609 35.9718 36.3059C35.7738 37.1285 36.0033 38.001 36.569 38.5819C37.2342 39.2654 38.1523 39.4828 38.8897 39.6564C39.3538 39.7661 39.8342 39.8799 40.0211 40.0617C40.2029 40.2384 40.2841 40.4415 40.2628 40.666C40.2384 40.9158 40.0871 41.1555 39.8586 41.3058C39.4645 41.5628 38.909 41.6278 38.4093 41.4744C38.0203 41.3556 37.4871 41.0478 37.157 40.2597C36.9834 39.8463 36.508 39.6513 36.0947 39.825C35.6813 39.9987 35.4863 40.474 35.66 40.8874C36.1079 41.9548 36.9153 42.7145 37.934 43.0263C37.9716 43.0374 38.0102 43.0466 38.0488 43.0567C37.9721 43.1828 37.9317 43.3276 37.932 43.4752V43.9332C37.932 44.3821 38.2955 44.7447 38.7434 44.7447C39.1913 44.7447 39.5549 44.3811 39.5549 43.9332V43.4752C39.5549 43.3553 39.5285 43.2416 39.4818 43.139C39.9368 43.0689 40.3715 42.9095 40.7503 42.6627C41.3871 42.2442 41.8096 41.5546 41.8797 40.8193C41.9487 40.1023 41.6908 39.4198 41.1545 38.8978C40.6447 38.4042 39.9429 38.2376 39.2634 38.0771Z"/>
</g>
<defs>
<clipPath id="clip0_158_86">
<rect width="52" height="52"/>
</clipPath>
</defs>
</svg>
