<svg width="33" height="32" viewBox="0 0 33 32" fill="currentColor" xmlns="http://www.w3.org/2000/svg">
<path d="M7.50258 3.21852C7.50258 2.94227 7.72633 2.71789 8.0032 2.71789H16.2432C16.5195 2.71789 16.7438 2.94164 16.7438 3.21852C16.7438 3.49539 16.5201 3.71914 16.2432 3.71914H8.0032C7.72695 3.71914 7.50258 3.49477 7.50258 3.21852ZM8.0032 7.36664H16.2432C16.5195 7.36664 16.7438 7.14289 16.7438 6.86602C16.7438 6.58914 16.5201 6.36539 16.2432 6.36539H8.0032C7.72695 6.36539 7.50258 6.58914 7.50258 6.86602C7.50258 7.14289 7.72695 7.36664 8.0032 7.36664ZM8.0032 11.0148H22.4351C22.7113 11.0148 22.9357 10.791 22.9357 10.5141C22.9357 10.2373 22.712 10.0135 22.4351 10.0135H8.0032C7.72695 10.0135 7.50258 10.2373 7.50258 10.5141C7.50258 10.791 7.72695 11.0148 8.0032 11.0148ZM15.8795 24.3816C16.0532 24.5966 16.0195 24.9116 15.8045 25.0854C15.192 25.5804 14.4213 25.7473 13.7938 25.5204C13.5326 25.426 13.3113 25.2679 13.1426 25.0598C12.4601 25.5029 11.4851 25.6654 10.5701 25.446C10.3063 25.3829 10.0657 25.291 9.85008 25.1741C9.19383 25.5466 8.5207 25.816 7.95258 25.9235C7.92133 25.9291 7.89008 25.9323 7.85945 25.9323C7.62383 25.9323 7.4132 25.7648 7.3682 25.5241C7.34359 25.3938 7.37177 25.259 7.44655 25.1494C7.52133 25.0398 7.63658 24.9644 7.76695 24.9398C8.1457 24.8685 8.59445 24.701 9.0507 24.4698C8.86633 24.2048 8.74258 23.8979 8.6857 23.5579C8.42383 21.9798 9.24008 20.9454 10.0907 20.5035C10.9076 20.0791 11.8332 20.1329 12.3413 20.6329C12.627 20.9141 13.0182 21.5635 12.4257 22.7498C12.1176 23.3654 11.5482 23.9716 10.8788 24.4898C11.6607 24.6498 12.5532 24.4129 12.8982 23.946C12.9557 23.868 13.0347 23.8084 13.1254 23.7745C13.2162 23.7405 13.3149 23.7337 13.4095 23.7548C13.5041 23.7758 13.5905 23.8238 13.6583 23.8931C13.7261 23.9623 13.7723 24.0497 13.7913 24.1448C13.837 24.371 13.9482 24.5129 14.132 24.5798C14.4276 24.6866 14.837 24.5798 15.1738 24.3079C15.3907 24.1335 15.7057 24.1666 15.8795 24.3816ZM11.5313 22.3023C11.7538 21.856 11.7945 21.4985 11.6401 21.346C11.557 21.2641 11.4057 21.2154 11.2188 21.2154C11.0238 21.2154 10.7895 21.2679 10.5526 21.391C10.2907 21.5266 9.45445 22.0729 9.67383 23.3929C9.71195 23.6241 9.80195 23.8079 9.91883 23.9541C10.6201 23.4754 11.2407 22.8829 11.5313 22.3023ZM32.8001 16.6335V17.7548C32.8001 18.1148 32.5695 18.4323 32.2257 18.5454L31.4763 18.7885C31.3504 19.2415 31.1697 19.6774 30.9382 20.0866L31.2957 20.7873C31.4595 21.1104 31.3982 21.4985 31.1438 21.7529L30.3476 22.5473C30.2239 22.671 30.0644 22.7526 29.8918 22.7805C29.7191 22.8084 29.5421 22.7813 29.3857 22.7029L28.6826 22.3441C28.2726 22.5744 27.8366 22.7548 27.3838 22.8816L27.1413 23.6291C27.0313 23.9716 26.7132 24.2035 26.3501 24.2035H26.2907V27.2729C26.2907 27.9766 25.7176 28.5491 25.0126 28.5491H22.9407V30.6229C22.9407 31.3266 22.3682 31.8991 21.6645 31.8991H2.07508C1.37133 31.8991 0.798828 31.3266 0.798828 30.6229V4.72977C0.798828 4.02477 1.37133 3.45164 2.07508 3.45164H4.14883V1.37977C4.14883 0.676016 4.72133 0.103516 5.42508 0.103516H19.2757C19.6226 0.103516 19.9345 0.232891 20.1788 0.476641L25.9157 6.21289C26.1607 6.45477 26.2907 6.76789 26.2907 7.11602V10.1835H26.3501C26.7145 10.1835 27.0332 10.4166 27.1426 10.7635L27.3838 11.5066C27.8307 11.6304 28.2676 11.811 28.6826 12.0441L29.382 11.6873C29.7076 11.5241 30.0945 11.586 30.3476 11.8391L31.1432 12.6348C31.3963 12.8879 31.4582 13.2748 31.297 13.5973L30.9382 14.3004C31.1713 14.7154 31.352 15.151 31.4763 15.5991L32.2232 15.8416C32.567 15.9504 32.8001 16.2691 32.8001 16.6335ZM20.0988 1.81164V6.29289H24.5801L20.0988 1.81164ZM21.9401 28.5485H5.4257C4.72195 28.5485 4.14945 27.976 4.14945 27.2723V4.45227H2.07508C1.9232 4.45227 1.79945 4.57664 1.79945 4.72977V30.6223C1.79945 30.7716 1.9257 30.8979 2.07508 30.8979H21.6645C21.8138 30.8979 21.9401 30.7716 21.9401 30.6223V28.5485ZM25.2901 24.2029H25.2288C24.8657 24.2029 24.547 23.971 24.437 23.6266L24.1945 22.881C23.7416 22.7544 23.3056 22.5739 22.8957 22.3435L22.1963 22.7004C21.8713 22.8629 21.4845 22.8004 21.2307 22.5466L20.437 21.7529C20.3125 21.6291 20.2306 21.4691 20.2028 21.2958C20.1751 21.1225 20.203 20.9449 20.2826 20.7885L20.6407 20.0866C20.4103 19.677 20.2298 19.2412 20.1032 18.7885L19.3557 18.546C19.212 18.4979 19.0888 18.4148 18.9932 18.3085H7.85945C7.5832 18.3085 7.35883 18.0848 7.35883 17.8079C7.35883 17.531 7.58258 17.3073 7.85945 17.3073H18.7807V16.6329C18.7807 16.2698 19.0126 15.9516 19.357 15.841L20.102 15.5991C20.1926 15.2769 20.3103 14.9629 20.4538 14.6604H7.85945C7.5832 14.6604 7.35883 14.4366 7.35883 14.1598C7.35883 13.8829 7.58258 13.6591 7.85945 13.6591H20.3132L20.2832 13.6004C20.1207 13.2754 20.1832 12.8885 20.437 12.6348L21.2301 11.8398C21.4838 11.586 21.8707 11.5241 22.1926 11.6854L22.8957 12.0441C23.3095 11.8116 23.7445 11.6316 24.1945 11.5066L24.437 10.7598C24.5457 10.4166 24.8638 10.1835 25.2282 10.1835H25.2895V7.29414H19.5982C19.322 7.29414 19.0976 7.07039 19.0976 6.79352V1.10414H5.4257C5.27383 1.10414 5.15008 1.22789 5.15008 1.37977V27.2723C5.15008 27.4216 5.27633 27.5479 5.4257 27.5479H25.0132C25.1663 27.5479 25.2907 27.4241 25.2907 27.2723V24.2029H25.2901ZM31.7995 16.7566L31.0807 16.5229C31.0788 16.5223 31.077 16.5216 31.0745 16.521C30.8038 16.4291 30.6063 16.2185 30.5332 15.9435C30.4232 15.5198 30.2532 15.1104 30.0282 14.7241C29.8838 14.4791 29.8757 14.1798 30.007 13.9254L30.3488 13.256L29.7282 12.6354L29.0563 12.9785C28.8038 13.1091 28.5045 13.1004 28.2576 12.9548C27.8732 12.731 27.4638 12.561 27.0413 12.4516C26.7626 12.3766 26.547 12.1716 26.4601 11.9029L26.227 11.1848H25.352L25.1182 11.9035C25.032 12.1716 24.8163 12.376 24.542 12.4498C24.113 12.5616 23.7015 12.7317 23.3188 12.9554C23.0757 13.0985 22.7776 13.1073 22.5226 12.9779L21.8501 12.6348L21.2301 13.256L21.5651 13.9129C21.5801 13.9391 21.5926 13.9666 21.6026 13.9954C21.6988 14.2323 21.6813 14.5004 21.5488 14.7254C21.3272 15.1064 21.1577 15.5155 21.0451 15.9416C20.972 16.2179 20.7745 16.4285 20.5038 16.5198C20.502 16.5204 20.5001 16.521 20.4976 16.5216L19.7807 16.7548V17.631L20.4976 17.8641C20.7657 17.9504 20.9701 18.166 21.0438 18.4404C21.1582 18.8735 21.3276 19.2835 21.5488 19.661C21.6945 19.9123 21.7026 20.2029 21.572 20.4591L21.2295 21.131L21.8507 21.7523L22.5213 21.4098C22.777 21.2798 23.0751 21.2891 23.3201 21.4335C23.7018 21.6551 24.1115 21.8245 24.5382 21.9373C24.8151 22.0116 25.0301 22.2166 25.117 22.4854L25.3495 23.2016H26.2257L26.4588 22.4848C26.5451 22.2166 26.7607 22.0123 27.0351 21.9379C27.0363 21.9379 27.037 21.9373 27.0382 21.9373C27.4663 21.8248 27.877 21.6548 28.2582 21.4329C28.5032 21.2885 28.8026 21.2804 29.057 21.4116L29.7257 21.7529L30.347 21.1329L30.0045 20.461C29.8738 20.2035 29.882 19.9135 30.0263 19.6641C30.2513 19.2798 30.4207 18.8704 30.5313 18.446C30.6063 18.1679 30.8113 17.9523 31.0801 17.8654L31.7982 17.6323V16.7566H31.7995ZM29.7032 17.1935C29.7032 19.351 27.9482 21.106 25.7907 21.106C23.6332 21.106 21.8782 19.351 21.8782 17.1935C21.8782 15.036 23.6332 13.281 25.7907 13.281C27.9482 13.281 29.7032 15.036 29.7032 17.1935ZM28.7026 17.1935C28.7026 15.5879 27.3963 14.2816 25.7907 14.2816C24.1851 14.2816 22.8788 15.5879 22.8788 17.1935C22.8788 18.7991 24.1851 20.1054 25.7907 20.1054C27.3963 20.1054 28.7026 18.7991 28.7026 17.1935ZM27.0101 15.9129L25.5095 17.4135L24.572 16.4748C24.377 16.2791 24.0595 16.2791 23.8645 16.4741C23.6688 16.6691 23.6688 16.9866 23.8638 17.1816L25.1557 18.4748C25.2495 18.5685 25.377 18.6216 25.5095 18.6216C25.642 18.6216 25.7695 18.5691 25.8632 18.4748L27.7182 16.6198C27.7647 16.5733 27.8016 16.5181 27.8268 16.4573C27.8519 16.3966 27.8649 16.3315 27.8649 16.2657C27.8649 16.1999 27.8519 16.1348 27.8268 16.0741C27.8016 16.0133 27.7647 15.9581 27.7182 15.9116C27.624 15.8181 27.4966 15.7658 27.3639 15.766C27.2312 15.7662 27.1039 15.8191 27.0101 15.9129Z"/>
</svg>
