<svg width="33" height="32" viewBox="0 0 33 32" fill="currentColor" xmlns="http://www.w3.org/2000/svg">
<g clip-path="url(#clip0_158_183)">
<path d="M26.932 27.3863V25.9606C26.932 24.8212 26.1152 23.8687 25.0364 23.6581V14.2837C25.0364 9.52187 21.1627 5.64813 16.4008 5.64813C11.6389 5.64813 7.76516 9.5225 7.76516 14.2837V23.6581C6.68641 23.8687 5.86953 24.8212 5.86953 25.9606V27.3863C4.86516 27.6519 4.12266 28.5681 4.12266 29.655V31.5006C4.12266 31.7769 4.34703 32.0013 4.62328 32.0013H28.1789C28.4552 32.0013 28.6795 31.7775 28.6795 31.5006V29.6544C28.6789 28.5681 27.9358 27.6519 26.932 27.3863ZM16.4002 6.64875C20.6102 6.64875 24.0352 10.0737 24.0352 14.2837V23.6144H17.7495V20.7681C18.6964 20.2781 19.3458 19.2894 19.3458 18.1513C19.3458 16.5269 18.0245 15.2056 16.4002 15.2056C14.7758 15.2056 13.4545 16.5269 13.4545 18.1513C13.4545 19.2894 14.1039 20.2781 15.0508 20.7681V23.6144H8.76516V14.2837C8.76516 10.0737 12.1902 6.64875 16.4002 6.64875ZM16.052 23.6144V21.0756C16.1664 21.0894 16.282 21.0969 16.4002 21.0969C16.5183 21.0969 16.6339 21.0894 16.7483 21.0756V23.6144H16.052ZM16.4002 20.0956C15.3283 20.0956 14.4558 19.2231 14.4558 18.1513C14.4558 17.0794 15.3283 16.2069 16.4002 16.2069C17.472 16.2069 18.3445 17.0794 18.3445 18.1513C18.3445 19.2231 17.472 20.0956 16.4002 20.0956ZM8.21516 24.615H24.5852C25.327 24.615 25.9308 25.2188 25.9308 25.9606V27.3081H6.86953V25.9606C6.86953 25.2188 7.47328 24.615 8.21516 24.615ZM27.6777 31.0006H5.12266V29.655C5.12266 28.9131 5.72641 28.3094 6.46828 28.3094H26.332C27.0739 28.3094 27.6777 28.9131 27.6777 29.655V31.0006ZM21.4695 5.34875L23.282 2.21125C23.4202 1.97187 23.7264 1.89 23.9658 2.02812C24.2052 2.16625 24.287 2.4725 24.1489 2.71187L22.3364 5.84938C22.2439 6.01 22.0758 6.09938 21.9027 6.09938C21.8177 6.09938 21.7314 6.0775 21.6527 6.0325C21.4133 5.89438 21.3314 5.58813 21.4695 5.34875ZM31.5308 15.1306C31.5308 15.4069 31.307 15.6312 31.0302 15.6312H26.6877C26.4114 15.6312 26.187 15.4075 26.187 15.1306C26.187 14.8538 26.4114 14.63 26.6877 14.63H31.0302C31.307 14.63 31.5308 14.8544 31.5308 15.1306ZM6.11203 15.6312H1.77016C1.49391 15.6312 1.26953 15.4075 1.26953 15.1306C1.26953 14.8538 1.49328 14.63 1.77016 14.63H6.11266C6.38891 14.63 6.61328 14.8538 6.61328 15.1306C6.61328 15.4075 6.38828 15.6312 6.11203 15.6312ZM25.2164 10.0412C25.0783 9.80187 25.1602 9.49563 25.3995 9.3575L28.8208 7.38188C29.0602 7.24375 29.3664 7.32562 29.5045 7.565C29.6427 7.80438 29.5608 8.11062 29.3214 8.24875L25.9002 10.2244C25.8242 10.2684 25.7379 10.2914 25.6502 10.2912C25.5623 10.2913 25.4759 10.2682 25.3998 10.2244C25.3237 10.1805 25.2604 10.1173 25.2164 10.0412ZM15.8995 3.99437V0.500625C15.8995 0.224375 16.1233 0 16.4002 0C16.677 0 16.9008 0.22375 16.9008 0.500625V3.99437C16.9008 4.27063 16.677 4.495 16.4002 4.495C16.1233 4.495 15.8995 4.27063 15.8995 3.99437ZM8.65141 2.71187C8.51328 2.4725 8.59516 2.16625 8.83453 2.02812C9.07391 1.89 9.38016 1.97187 9.51828 2.21125L11.3308 5.34875C11.4689 5.58813 11.387 5.89438 11.1477 6.0325C11.0717 6.07648 10.9854 6.09955 10.8977 6.09938C10.7245 6.09938 10.5564 6.01 10.4639 5.84938L8.65141 2.71187ZM3.29578 7.56563C3.43391 7.32625 3.74016 7.24438 3.97953 7.3825L7.40078 9.35812C7.64016 9.49625 7.72203 9.8025 7.58391 10.0419C7.49141 10.2025 7.32328 10.2919 7.15016 10.2919C7.06516 10.2919 6.97891 10.27 6.90016 10.225L3.47891 8.24937C3.23953 8.11062 3.15766 7.80438 3.29578 7.56563Z"/>
</g>
<defs>
<clipPath id="clip0_158_183">
<rect width="32" height="32" transform="translate(0.400391)"/>
</clipPath>
</defs>
</svg>
