<svg width="52" height="52" viewBox="0 0 52 52" fill="currentColor" xmlns="http://www.w3.org/2000/svg">
<path d="M49.952 31.7494C49.4767 30.875 48.6866 30.2382 47.7278 29.9548C46.768 29.6715 45.7595 29.7771 44.8871 30.2524L42.5105 31.5453C42.475 31.4681 42.4384 31.392 42.3978 31.3168C41.9225 30.4423 41.1323 29.8055 40.1736 29.5222C39.2148 29.2388 38.2053 29.3444 37.3329 29.8198L33.2145 32.0612C30.3718 31.1452 27.5291 30.2291 24.6833 29.314C21.7745 28.3776 18.9409 28.6427 16.2587 30.1021L9.11476 33.9909L8.32866 32.628C7.89398 31.8784 6.93015 31.6205 6.17859 32.0521L2.38218 34.2387C1.63366 34.6724 1.37366 35.6362 1.80226 36.3858C1.80226 36.3868 1.80327 36.3878 1.80327 36.3878L10.3426 51.2129C10.4458 51.3918 10.5834 51.5485 10.7474 51.674C10.9114 51.7995 11.0987 51.8913 11.2984 51.9441C11.4355 51.9807 11.5736 51.999 11.7107 51.999C11.9829 51.999 12.252 51.9279 12.4917 51.7887L16.2851 49.6041C17.0366 49.1725 17.2976 48.2087 16.866 47.453L16.1134 46.1469L16.4963 45.9398C18.0888 45.0724 19.7707 44.915 21.4983 45.4726L25.1718 46.6558C26.0158 46.9269 26.8516 47.063 27.6753 47.063C28.9662 47.063 30.2276 46.7309 31.4484 46.0667L48.4509 36.8134C49.3254 36.338 49.9622 35.5479 50.2455 34.5891C50.533 33.6304 50.4273 32.6219 49.952 31.7494ZM38.1078 31.2467C38.5994 30.9786 39.1691 30.9197 39.7125 31.0802C40.2559 31.2406 40.7027 31.6002 40.9688 32.0907C41.0105 32.1679 41.045 32.2461 41.0765 32.3253L36.9845 34.5526C36.6341 33.7929 36.0369 33.1642 35.2884 32.7813L38.1078 31.2467ZM11.7249 50.3587L3.2353 35.621L6.94741 33.4831L14.2772 46.2079C14.2792 46.2119 14.2802 46.215 14.2823 46.2191C14.2884 46.2302 14.2944 46.2394 14.3016 46.2495L15.437 48.2209L11.7249 50.3587ZM48.6926 34.1301C48.5322 34.6734 48.1726 35.1203 47.6791 35.3884L30.6765 44.6418C29.083 45.5091 27.4001 45.6666 25.6735 45.112L22 43.9288C19.8326 43.2291 17.7201 43.4261 15.7234 44.5148L15.306 44.7413L9.92421 35.3986L17.0336 31.5291C19.3096 30.291 21.7156 30.0655 24.1846 30.8608C27.5382 31.9404 30.8898 33.02 34.2413 34.0996C35.0152 34.3484 35.583 35.035 35.6886 35.8485C35.6916 35.8749 35.6977 35.9013 35.7038 35.9267C35.7018 35.9552 35.7018 35.9826 35.7028 36.012C35.714 36.2649 35.6794 36.5148 35.6033 36.7545C35.4316 37.2887 35.0599 37.7254 34.5551 37.9834C34.0514 38.2423 33.4796 38.2901 32.9464 38.1184C30.1016 37.2003 27.2569 36.2842 24.4121 35.3691C23.9845 35.232 23.5275 35.4666 23.3904 35.8932C23.2533 36.3198 23.4879 36.7778 23.9144 36.9149C26.7582 37.83 29.603 38.7461 32.4477 39.6642C32.8225 39.7841 33.2064 39.844 33.5893 39.844C34.1753 39.844 34.7583 39.7038 35.2966 39.4276C36.1862 38.9705 36.8444 38.1977 37.148 37.2511C37.2562 36.916 37.316 36.5672 37.3258 36.2152L45.663 31.6773C46.1546 31.4092 46.7244 31.3503 47.2677 31.5108C47.8111 31.6712 48.258 32.0308 48.5261 32.5254C48.7932 33.017 48.8531 33.5867 48.6926 34.1301ZM21.8192 26.4367H45.6255C46.9082 26.4367 47.9512 25.3947 47.9512 24.113V8.15851C47.9512 6.87781 46.9072 5.83477 45.6255 5.83477H42.3094V2.13789C42.3084 0.95875 41.3487 0 40.1695 0H27.2751C26.096 0 25.1362 0.959766 25.1362 2.13891V5.83578H21.8202C20.5375 5.83578 19.4944 6.87781 19.4944 8.15953V24.115C19.4934 25.3947 20.5365 26.4367 21.8192 26.4367ZM26.7592 2.13891C26.7592 1.85453 26.9908 1.62398 27.2741 1.62398H40.1685C40.4529 1.62398 40.6834 1.85555 40.6834 2.13891V5.83578H39.6556V3.46328C39.6556 3.01437 39.292 2.6518 38.8441 2.6518H28.5995C28.1506 2.6518 27.788 3.01539 27.788 3.46328V5.83578H26.7602V2.13891H26.7592ZM29.411 5.83477V4.27477H38.0337V5.83477H29.411ZM21.1174 8.15851C21.1174 7.77258 21.4323 7.45875 21.8202 7.45875H45.6265C46.0134 7.45875 46.3293 7.77258 46.3293 8.15851V24.114C46.3293 24.4999 46.0144 24.8137 45.6265 24.8137H21.8202C21.4333 24.8137 21.1174 24.4999 21.1174 24.114V8.15851ZM28.5101 18.6926H31.164V21.3495C31.164 22.1274 31.7977 22.7602 32.5777 22.7602H34.8669C35.6449 22.7602 36.2776 22.1274 36.2776 21.3495V18.6926H38.9345C39.7135 18.6926 40.3483 18.0588 40.3483 17.2788V14.9927C40.3483 14.2137 39.7145 13.5789 38.9345 13.5789H36.2776V10.922C36.2776 10.1441 35.6449 9.51133 34.8669 9.51133H32.5777C31.7987 9.51133 31.164 10.1441 31.164 10.922V13.5789H28.5101C27.7312 13.5789 27.0964 14.2127 27.0964 14.9927V17.2788C27.0964 18.0588 27.7301 18.6926 28.5101 18.6926ZM28.7204 15.2029H31.9765C32.4254 15.2029 32.788 14.8393 32.788 14.3914V11.1353H34.6537V14.3914C34.6537 14.8403 35.0173 15.2029 35.4651 15.2029H38.7243V17.0686H35.4651C35.0162 17.0686 34.6537 17.4322 34.6537 17.8801V21.1362H32.788V17.8801C32.788 17.4312 32.4244 17.0686 31.9765 17.0686H28.7204V15.2029Z"/>
</svg>
