<svg width="33" height="32" viewBox="0 0 33 32" fill="currentColor" xmlns="http://www.w3.org/2000/svg">
<g clip-path="url(#clip0_158_151)">
<path d="M29.559 0.255859H11.924C10.2478 0.255859 8.88401 1.61961 8.88401 3.29586V19.074C8.88401 19.4259 8.94651 19.774 9.06526 20.1027C8.32463 20.4559 7.71276 20.9815 7.21276 21.6952L7.15651 21.7752C7.00401 21.994 6.81338 22.1284 6.55588 22.1965L6.29526 22.2665C6.01088 21.6084 5.25963 21.269 4.57026 21.5065L1.53338 22.5552C0.812132 22.8059 0.427132 23.5965 0.674632 24.319C0.674632 24.3196 0.675257 24.3196 0.675257 24.3202L2.91838 30.8102C3.11651 31.3827 3.65463 31.7427 4.22901 31.7427C4.37901 31.7427 4.53088 31.7184 4.68026 31.6665L7.71901 30.6177C8.41838 30.3759 8.80088 29.6259 8.59651 28.9234L11.5034 27.869C12.1996 27.6152 12.8353 27.5646 13.5646 27.704L14.6484 27.9115C15.9609 28.1634 17.1896 27.9121 18.3009 27.1659L25.8103 22.1152H29.559C31.2353 22.1152 32.599 20.7515 32.599 19.0752V3.29586C32.5996 1.61961 31.2353 0.255859 29.559 0.255859ZM17.5634 1.25461H23.9184V9.05148C23.9184 9.06398 23.9184 9.08523 23.8684 9.11086C23.8128 9.13836 23.7578 9.13648 23.7059 9.10523L21.3409 7.68648C20.9721 7.46523 20.5134 7.46523 20.1409 7.68648L17.7746 9.10648C17.7115 9.14461 17.6528 9.13023 17.6184 9.11273C17.5634 9.08523 17.5634 9.06273 17.5634 9.05211V1.25461ZM7.39213 29.6727L4.35338 30.7215C4.15213 30.7915 3.93151 30.684 3.86213 30.4827L1.61963 23.9946C1.55151 23.7952 1.66151 23.569 1.85963 23.5009L4.89588 22.4521C5.09838 22.3821 5.31963 22.4902 5.38963 22.6921L7.63088 29.1821C7.70026 29.3834 7.59338 29.6034 7.39213 29.6727ZM17.7434 26.3359C16.8471 26.9384 15.8959 27.1327 14.8365 26.9296L13.7528 26.7221C12.8484 26.549 12.0253 26.6146 11.1621 26.929L8.27213 27.9771L6.62651 23.2121L6.81463 23.1615C7.29838 23.0327 7.68901 22.7584 7.97463 22.3477L8.03026 22.269C8.58026 21.4846 9.29651 20.9846 10.2209 20.7396L11.0728 20.5127C11.1659 20.4877 11.2503 20.4365 11.3146 20.3652L13.8103 17.6052C14.1934 17.1827 14.849 17.1502 15.2715 17.5321C15.7203 17.939 15.5265 18.5959 15.2796 19.0827L13.8796 21.3302C13.8703 21.3434 13.8621 21.3571 13.854 21.3715L12.3271 23.8234C12.1815 24.0577 12.2528 24.3659 12.4871 24.5115C12.569 24.5627 12.6609 24.5871 12.7509 24.5871C12.9178 24.5871 13.0809 24.5034 13.1753 24.3515L14.569 22.114H24.0196L17.7434 26.3359ZM31.6003 19.074C31.6003 20.1996 30.6846 21.1152 29.559 21.1152H15.1915L16.139 19.5934C16.1465 19.5815 16.1528 19.5696 16.159 19.5577C16.7315 18.444 16.6528 17.4365 15.9415 16.7921C15.1103 16.0409 13.8221 16.1052 13.069 16.9359L10.6721 19.5865L10.0034 19.7646C9.92344 19.5433 9.88242 19.3099 9.88213 19.0746V3.29586C9.88213 2.17023 10.7978 1.25461 11.9234 1.25461H16.5634V9.05148C16.5634 9.45711 16.789 9.81336 17.1709 10.0059C17.3365 10.0877 17.5146 10.1284 17.6915 10.1284C17.899 10.1284 18.1059 10.0727 18.289 9.96148L20.6528 8.54336C20.7096 8.50961 20.7709 8.50961 20.8259 8.54273L23.1915 9.96211C23.534 10.1671 23.9528 10.1834 24.3146 10.004C24.6915 9.81398 24.9171 9.45773 24.9171 9.05148V1.25461H29.559C30.6846 1.25461 31.6003 2.17023 31.6003 3.29586V19.074Z" />
</g>
<defs>
<clipPath id="clip0_158_151">
<rect width="32" height="32" transform="translate(0.599609)"/>
</clipPath>
</defs>
</svg>
