<svg width="33" height="32" viewBox="0 0 33 32" fill="currentColor" xmlns="http://www.w3.org/2000/svg">
<path d="M22.8699 0.916016H10.7299C8.85676 0.916016 7.33301 2.43977 7.33301 4.31289V27.686C7.33301 29.5591 8.85676 31.0829 10.7299 31.0829H22.8693C24.7424 31.0829 26.2661 29.5591 26.2661 27.686V4.31289C26.2668 2.43977 24.743 0.916016 22.8699 0.916016ZM25.2655 27.6866C25.2655 29.0079 24.1905 30.0829 22.8693 30.0829H10.7299C9.40863 30.0829 8.33363 29.0079 8.33363 27.6866V4.31289C8.33363 2.99164 9.40863 1.91664 10.7299 1.91664H22.8693C24.1905 1.91664 25.2655 2.99164 25.2655 4.31289V27.6866ZM19.8143 3.92852C19.8143 4.20477 19.5905 4.42914 19.3136 4.42914H14.2874C14.0111 4.42914 13.7868 4.20539 13.7868 3.92852C13.7868 3.65164 14.0105 3.42789 14.2874 3.42789H19.3136C19.5905 3.42789 19.8143 3.65227 19.8143 3.92852ZM18.4624 28.0729C18.4624 28.3491 18.2386 28.5735 17.9618 28.5735H15.6393C15.363 28.5735 15.1386 28.3498 15.1386 28.0729C15.1386 27.796 15.3624 27.5723 15.6393 27.5723H17.9618C18.2386 27.5723 18.4624 27.796 18.4624 28.0729Z"/>
</svg>
