<svg width="33" height="32" viewBox="0 0 33 32" fill="currentColor" xmlns="http://www.w3.org/2000/svg">
<g clip-path="url(#clip0_158_158)">
<path d="M11.3005 4.26312C11.3005 3.98688 11.5243 3.76375 11.7999 3.76375H21.023C21.2993 3.76375 21.5224 3.9875 21.5224 4.26312C21.5224 4.53875 21.2986 4.7625 21.023 4.7625H11.7999C11.5243 4.7625 11.3005 4.53875 11.3005 4.26312ZM6.79676 10.1219H21.023C21.2993 10.1219 21.5224 9.89813 21.5224 9.6225C21.5224 9.34688 21.2986 9.12313 21.023 9.12313H6.79676C6.52051 9.12313 6.29738 9.34688 6.29738 9.6225C6.29738 9.89813 6.52113 10.1219 6.79676 10.1219ZM6.79676 15.4825H21.023C21.2993 15.4825 21.5224 15.2587 21.5224 14.9831C21.5224 14.7075 21.2986 14.4838 21.023 14.4838H6.79676C6.52051 14.4838 6.29738 14.7075 6.29738 14.9831C6.29738 15.2587 6.52113 15.4825 6.79676 15.4825ZM16.8405 19.8425H6.79676C6.52051 19.8425 6.29738 20.0662 6.29738 20.3419C6.29738 20.6175 6.52113 20.8412 6.79676 20.8412H16.8405C17.1168 20.8412 17.3399 20.6175 17.3399 20.3419C17.3399 20.0662 17.1161 19.8425 16.8405 19.8425ZM16.8405 25.2038H6.79676C6.52051 25.2038 6.29738 25.4275 6.29738 25.7031C6.29738 25.9788 6.52113 26.2025 6.79676 26.2025H16.8405C17.1168 26.2025 17.3399 25.9788 17.3399 25.7031C17.3399 25.4275 17.1161 25.2038 16.8405 25.2038ZM28.833 22.0875V27.6863C28.833 28.9269 28.2361 30.0594 27.1524 30.8756C26.203 31.5906 24.9643 32.0006 23.7536 32.0006C22.543 32.0006 21.3036 31.5906 20.3549 30.8756C19.9955 30.605 19.6911 30.2994 19.443 29.9662H5.48238C4.42613 29.9662 3.56738 29.1063 3.56738 28.0494V6.08938C3.56738 5.82188 3.61926 5.56875 3.71926 5.335C3.72926 5.3075 3.74051 5.28188 3.75488 5.25688C3.84676 5.06687 3.97176 4.89188 4.12863 4.735L8.30238 0.56125C8.47113 0.3925 8.66113 0.26125 8.86738 0.1675C8.87113 0.165625 8.87551 0.16375 8.87926 0.161875C9.11926 0.055625 9.38051 0 9.65613 0H22.3374C23.3936 0 24.2524 0.859375 24.2524 1.915V20.4438L28.4655 21.6056C28.6824 21.6656 28.833 21.8625 28.833 22.0875ZM5.27301 5.00313H8.57051V1.70563L5.27301 5.00313ZM18.8999 28.9669C18.7503 28.5565 18.6739 28.123 18.6743 27.6863V22.0875C18.6743 21.8625 18.8243 21.6656 19.0411 21.6056L23.2543 20.4438V1.91562C23.2543 1.41062 22.8436 1 22.338 1H9.65613C9.62676 1 9.59801 1.00125 9.56926 1.00375V5.50375C9.56926 5.77938 9.34551 6.00313 9.06988 6.00313H4.56988C4.56738 6.03125 4.56613 6.06063 4.56613 6.09V28.0494C4.56613 28.5556 4.97676 28.9669 5.48238 28.9669H18.8999ZM27.8336 22.4681L23.7536 21.3425L19.6736 22.4681V27.6863C19.6736 29.6688 21.783 31.0012 23.7536 31.0012C25.7243 31.0012 27.8336 29.6694 27.8336 27.6863V22.4681ZM21.7186 25.1712C21.6246 25.0796 21.4982 25.0287 21.3669 25.0296C21.2356 25.0305 21.1099 25.083 21.017 25.1759C20.9241 25.2687 20.8716 25.3944 20.8707 25.5257C20.8699 25.6571 20.9208 25.7834 21.0124 25.8775L23.0161 27.8813C23.1136 27.9788 23.2418 28.0275 23.3693 28.0275C23.4968 28.0275 23.6249 27.9788 23.7224 27.8813L26.4949 25.1087C26.5865 25.0147 26.6374 24.8883 26.6365 24.757C26.6357 24.6257 26.5831 24.5 26.4903 24.4071C26.3974 24.3143 26.2717 24.2617 26.1404 24.2609C26.0091 24.26 25.8827 24.3109 25.7886 24.4025L23.3693 26.8219L21.7186 25.1712Z"/>
</g>
<defs>
<clipPath id="clip0_158_158">
<rect width="32" height="32" transform="translate(0.200195)"/>
</clipPath>
</defs>
</svg>
