<svg width="32" height="32" viewBox="0 0 32 32" fill="currentColor" xmlns="http://www.w3.org/2000/svg">
<path d="M28.0933 3.13625H23.3539V1.73125C23.3545 0.776875 22.5777 0 21.6233 0C20.6689 0 19.8927 0.77625 19.8927 1.73063V3.13562H12.1077V1.73125C12.1077 0.776875 11.3314 0 10.377 0C9.42266 0 8.64641 0.77625 8.64641 1.73063V3.13562H3.90703C2.55578 3.13562 1.45703 4.235 1.45703 5.58563V29.5487C1.45703 30.9 2.55641 31.9988 3.90703 31.9988H28.0939C29.4452 31.9988 30.5439 30.8994 30.5439 29.5487V5.58625C30.5439 4.235 29.4445 3.13625 28.0933 3.13625ZM20.8914 1.73125C20.8914 1.3275 21.2195 0.999375 21.6233 0.999375C22.027 0.999375 22.3552 1.3275 22.3552 1.73125V5.54187C22.3552 5.94438 22.027 6.27187 21.6233 6.27187C21.2195 6.27187 20.8914 5.94438 20.8914 5.54187V1.73125ZM9.64516 1.73125C9.64516 1.3275 9.97328 0.999375 10.377 0.999375C10.7808 0.999375 11.1089 1.3275 11.1089 1.73125V5.54187C11.1089 5.94438 10.7808 6.27187 10.377 6.27187C9.97328 6.27187 9.64516 5.94438 9.64516 5.54187V1.73125ZM3.90703 4.135H8.64641V5.54187C8.64641 6.49563 9.42266 7.27125 10.377 7.27125C11.3314 7.27125 12.1077 6.49563 12.1077 5.54187V4.135H19.892V5.54187C19.892 6.49563 20.6683 7.27125 21.6227 7.27125C22.577 7.27125 23.3533 6.49563 23.3533 5.54187V4.135H28.0927C28.8927 4.135 29.5439 4.78625 29.5439 5.58625V9.40938H2.45578V5.58625C2.45578 4.78625 3.10703 4.135 3.90703 4.135ZM28.0933 31.0006H3.90703C3.10703 31.0006 2.45578 30.35 2.45578 29.5494V10.4087H29.5445V29.55C29.5445 30.3494 28.8933 31.0006 28.0933 31.0006ZM8.85703 12.3431H6.55891C6.02766 12.3431 5.59516 12.7756 5.59516 13.3069V15.605C5.59516 16.1362 6.02766 16.5688 6.55891 16.5688H8.85703C9.38828 16.5688 9.82078 16.1362 9.82078 15.605V13.3069C9.82078 12.7756 9.38828 12.3431 8.85703 12.3431ZM8.82141 15.5694H6.59453V13.3425H8.82141V15.5694ZM8.85703 18.5919H6.55891C6.02766 18.5919 5.59516 19.0244 5.59516 19.5556V21.8531C5.59516 22.3844 6.02766 22.8169 6.55891 22.8169H8.85703C9.38828 22.8169 9.82078 22.3844 9.82078 21.8531V19.5556C9.82078 19.0244 9.38828 18.5919 8.85703 18.5919ZM8.82141 21.8181H6.59453V19.5912H8.82141V21.8181ZM17.1483 12.3431H14.852C14.3208 12.3431 13.8883 12.7756 13.8883 13.3069V15.605C13.8883 16.1362 14.3208 16.5688 14.852 16.5688H17.1483C17.6795 16.5688 18.112 16.1362 18.112 15.605V13.3069C18.112 12.7756 17.6795 12.3431 17.1483 12.3431ZM17.1127 15.5694H14.8877V13.3425H17.1127V15.5694ZM17.1483 18.5919H14.852C14.3208 18.5919 13.8883 19.0244 13.8883 19.5556V21.8531C13.8883 22.3844 14.3208 22.8169 14.852 22.8169H17.1483C17.6795 22.8169 18.112 22.3844 18.112 21.8531V19.5556C18.112 19.0244 17.6795 18.5919 17.1483 18.5919ZM17.1127 21.8181H14.8877V19.5912H17.1127V21.8181ZM17.1483 24.8406H14.852C14.3208 24.8406 13.8883 25.2731 13.8883 25.8044V28.1006C13.8883 28.6319 14.3208 29.0644 14.852 29.0644H17.1483C17.6795 29.0644 18.112 28.6319 18.112 28.1006V25.8044C18.112 25.2731 17.6795 24.8406 17.1483 24.8406ZM17.1127 28.065H14.8877V25.84H17.1127V28.065ZM8.85703 24.8406H6.55891C6.02766 24.8406 5.59516 25.2731 5.59516 25.8044V28.1006C5.59516 28.6319 6.02766 29.0644 6.55891 29.0644H8.85703C9.38828 29.0644 9.82078 28.6319 9.82078 28.1006V25.8044C9.82078 25.2731 9.38828 24.8406 8.85703 24.8406ZM8.82141 28.065H6.59453V25.84H8.82141V28.065ZM25.4414 12.3431H23.1433C22.612 12.3431 22.1795 12.7756 22.1795 13.3069V15.605C22.1795 16.1362 22.612 16.5688 23.1433 16.5688H25.4414C25.9727 16.5688 26.4052 16.1362 26.4052 15.605V13.3069C26.4052 12.7756 25.9727 12.3431 25.4414 12.3431ZM25.4058 15.5694H23.1789V13.3425H25.4058V15.5694ZM25.4414 18.5919H23.1433C22.612 18.5919 22.1795 19.0244 22.1795 19.5556V21.8531C22.1795 22.3844 22.612 22.8169 23.1433 22.8169H25.4414C25.9727 22.8169 26.4052 22.3844 26.4052 21.8531V19.5556C26.4052 19.0244 25.9727 18.5919 25.4414 18.5919ZM25.4058 21.8181H23.1789V19.5912H25.4058V21.8181ZM25.4414 24.8406H23.1433C22.612 24.8406 22.1795 25.2731 22.1795 25.8044V28.1006C22.1795 28.6319 22.612 29.0644 23.1433 29.0644H25.4414C25.9727 29.0644 26.4052 28.6319 26.4052 28.1006V25.8044C26.4052 25.2731 25.9727 24.8406 25.4414 24.8406ZM25.4058 28.065H23.1789V25.84H25.4058V28.065Z"/>
</svg>
