<svg width="52" height="52" viewBox="0 0 52 52" fill="currentColor" xmlns="http://www.w3.org/2000/svg">
<g clip-path="url(#clip0_158_65)">
<path d="M45.4114 10.0314C41.163 5.78299 35.4928 3.44299 29.4437 3.44299C23.3946 3.44299 17.7244 5.78299 13.4761 10.0314C9.37598 14.1314 7.05121 19.5671 6.89582 25.3856C5.68926 25.9645 4.55988 26.7526 3.56051 27.751C-1.19465 32.5061 -1.19465 40.2432 3.56051 44.9983C5.8548 47.2936 8.91793 48.5571 12.1842 48.5571C14.8177 48.5571 17.3182 47.7354 19.3911 46.214C22.5039 47.7517 25.9855 48.553 29.4782 48.552C30.5497 48.552 31.6212 48.4768 32.6836 48.3245C37.5484 47.6278 41.9501 45.4289 45.4104 41.9667C49.6587 37.7183 51.9987 32.0471 51.9987 25.999C51.9987 19.951 49.6597 14.2797 45.4114 10.0314ZM4.70918 43.8496C0.587774 39.7272 0.587774 33.021 4.70918 28.8986C5.67199 27.9358 6.77598 27.1974 7.95512 26.6846C7.99574 26.6714 8.03434 26.6551 8.07191 26.6358C9.38309 26.0843 10.7836 25.8071 12.1842 25.8071C14.8918 25.8071 17.5985 26.8379 19.6592 28.8986C23.7786 33.021 23.7786 39.7282 19.6592 43.8496C19.3853 44.1231 19.0968 44.3814 18.7949 44.6235L18.7796 44.6357C16.919 46.1236 14.6176 46.9321 12.1842 46.9321C9.3516 46.9331 6.69676 45.8382 4.70918 43.8496ZM44.2627 40.819C38.1293 46.9544 28.616 48.621 20.7449 45.0603C20.7662 45.04 20.7875 45.0196 20.8079 44.9983C25.56 40.2432 25.56 32.5061 20.8079 27.752C17.4959 24.44 12.7387 23.4356 8.54926 24.7366C8.85191 19.5975 10.9827 14.821 14.6237 11.18C22.7954 3.00831 36.091 3.00831 44.2627 11.18C52.4344 19.3507 52.4344 32.6473 44.2627 40.819ZM43.8382 25.999C43.8382 26.4479 43.4746 26.8105 43.0267 26.8105H29.4437C28.9948 26.8105 28.6322 26.4469 28.6322 25.999V12.4191C28.6322 11.9702 28.9958 11.6076 29.4437 11.6076C29.8916 11.6076 30.2552 11.9712 30.2552 12.4191V25.1875H43.0267C43.4746 25.1875 43.8382 25.5501 43.8382 25.999ZM17.1486 34.2428L11.7363 39.6551C11.5779 39.8135 11.3696 39.8928 11.1625 39.8928C10.9553 39.8928 10.7471 39.8135 10.5886 39.6551L7.21777 36.2863C6.9009 35.9694 6.89988 35.4555 7.21777 35.1386C7.53465 34.8217 8.04856 34.8207 8.36543 35.1386L11.1625 37.9336L16.0009 33.0952C16.1531 32.943 16.3595 32.8575 16.5747 32.8575C16.7899 32.8575 16.9964 32.943 17.1486 33.0952C17.4654 33.411 17.4654 33.9249 17.1486 34.2428Z" />
</g>
<defs>
<clipPath id="clip0_158_65">
<rect width="52" height="52" />
</clipPath>
</defs>
</svg>
