<svg width="52" height="52" viewBox="0 0 52 52" fill="currentColor" xmlns="http://www.w3.org/2000/svg">
<g clip-path="url(#clip0_158_79)">
<path d="M32.5463 39.6132H12.6157C12.1668 39.6132 11.8022 39.2496 11.8022 38.7997C11.8022 38.3498 12.1658 37.9862 12.6157 37.9862H32.5463C32.9952 37.9862 33.3599 38.3498 33.3599 38.7997C33.3599 39.2496 32.9952 39.6132 32.5463 39.6132ZM12.6157 28.7999H32.5463C32.9952 28.7999 33.3599 28.4363 33.3599 27.9864C33.3599 27.5364 32.9963 27.1728 32.5463 27.1728H12.6157C12.1668 27.1728 11.8022 27.5364 11.8022 27.9864C11.8022 28.4363 12.1658 28.7999 12.6157 28.7999ZM12.6157 17.9896H32.5463C32.9952 17.9896 33.3599 17.626 33.3599 17.176C33.3599 16.7261 32.9963 16.3625 32.5463 16.3625H12.6157C12.1668 16.3625 11.8022 16.7261 11.8022 17.176C11.8022 17.626 12.1658 17.9896 12.6157 17.9896ZM21.9199 7.17925H32.5463C32.9952 7.17925 33.3599 6.81565 33.3599 6.36573C33.3599 5.91581 32.9963 5.55222 32.5463 5.55222H21.9199C21.471 5.55222 21.1063 5.91581 21.1063 6.36573C21.1063 6.81565 21.471 7.17925 21.9199 7.17925ZM45.2356 7.64948V51.1873C45.2356 51.6362 44.872 52.0008 44.422 52.0008H14.4144C13.9655 52.0008 13.6009 51.6372 13.6009 51.1873V45.1636H7.5772C7.12829 45.1636 6.76368 44.8 6.76368 44.3501V11.844C6.7634 11.7963 6.76782 11.7487 6.77689 11.7018L6.77994 11.6835C6.78501 11.6602 6.79111 11.6368 6.7972 11.6135C6.79822 11.6114 6.79822 11.6084 6.79923 11.6064C6.80634 11.583 6.81447 11.5607 6.82361 11.5383C6.82462 11.5363 6.82462 11.5342 6.82564 11.5322C6.83478 11.5109 6.84494 11.4896 6.85509 11.4692C6.85611 11.4662 6.85814 11.4632 6.85915 11.4601C6.86931 11.4408 6.88048 11.4225 6.89267 11.4042C6.89572 11.4002 6.89775 11.3961 6.89978 11.3921C6.91197 11.3738 6.92517 11.3565 6.93837 11.3392C6.94142 11.3352 6.94345 11.3311 6.9465 11.3281C6.96376 11.3067 6.98204 11.2875 7.00134 11.2682L18.0331 0.237451C18.0524 0.218154 18.0717 0.199873 18.093 0.182607C18.097 0.179561 18.1011 0.176514 18.1042 0.174482C18.1214 0.161279 18.1387 0.148076 18.157 0.135889C18.161 0.132842 18.1651 0.130811 18.1702 0.127764C18.1885 0.116592 18.2067 0.104404 18.226 0.094248C18.2291 0.0922168 18.2321 0.0912012 18.2352 0.0901855C18.2555 0.0790137 18.2768 0.0688574 18.2981 0.0607324C18.3002 0.0597168 18.3022 0.0597168 18.3042 0.0587012C18.3266 0.0495605 18.3489 0.0414355 18.3723 0.0343262C18.3743 0.0333105 18.3774 0.0333105 18.3794 0.0322949C18.4027 0.0251855 18.4251 0.0190918 18.4495 0.0150293L18.4688 0.0119824C18.4881 0.00893555 18.5084 0.00487305 18.5277 0.0028418C18.5541 -0.000205078 18.5815 -0.0012207 18.6089 -0.0012207H37.5838C38.0327 -0.0012207 38.3974 0.362373 38.3974 0.812295V6.83698H44.421C44.5279 6.83674 44.6338 6.85758 44.7326 6.8983C44.8314 6.93902 44.9212 6.99883 44.9968 7.0743C45.0725 7.14977 45.1325 7.23942 45.1735 7.33811C45.2144 7.43681 45.2355 7.54262 45.2356 7.64948ZM9.5404 11.0305H17.7954V2.7755L9.5404 11.0305ZM8.39072 43.5366H36.7713V1.62479H19.4224V11.844C19.4224 12.2929 19.0588 12.6575 18.6089 12.6575H8.39072V43.5366ZM43.6085 8.463H38.3974V44.3501C38.3974 44.799 38.0338 45.1636 37.5838 45.1636H15.2279V50.3748H43.6085V8.463Z"/>
</g>
<defs>
<clipPath id="clip0_158_79">
<rect width="52" height="52"/>
</clipPath>
</defs>
</svg>
