<svg width="20" height="24" viewBox="0 0 20 24" fill="none" xmlns="http://www.w3.org/2000/svg">
<path d="M11.8842 6.9998C10.9957 6.11126 10.5514 5.66699 9.99935 5.66699C9.44727 5.66699 9.00302 6.11126 8.11447 6.9998C7.58128 7.53299 7.05291 7.78054 6.29275 7.78054C5.62902 7.78054 4.68471 7.65181 4.16602 8.17486C3.65142 8.69378 3.77958 9.6342 3.77958 10.2937C3.77958 11.0539 3.53202 11.5823 2.99881 12.1155C2.11028 13.004 1.66602 13.4482 1.66602 14.0003C1.66603 14.5523 2.1103 14.9967 2.99883 15.8852C3.59615 16.4825 3.77958 16.8682 3.77958 17.7069C3.77958 18.3707 3.65086 19.315 4.17392 19.8337C4.69283 20.3482 5.63325 20.2201 6.29273 20.2201C7.10226 20.2201 7.49208 20.3784 8.06982 20.9562C8.56177 21.4482 9.22127 22.3337 9.99935 22.3337C10.7774 22.3337 11.4369 21.4482 11.9288 20.9562C12.5066 20.3784 12.8964 20.2201 13.7059 20.2201C14.3654 20.2201 15.3058 20.3482 15.8248 19.8337M15.8248 19.8337C16.3478 19.315 16.2191 18.3707 16.2191 17.7069C16.2191 16.8682 16.4025 16.4825 16.9998 15.8852C17.8884 14.9967 18.3327 14.5523 18.3327 14.0003C18.3327 13.4482 17.8884 13.004 16.9998 12.1155M15.8248 19.8337H15.8327" stroke="#6758C2" stroke-width="1.25" stroke-linecap="round" stroke-linejoin="round"/>
<path d="M6.66602 12.5901C6.66602 12.5901 8.54102 12.3337 9.99935 15.667C9.99935 15.667 14.215 7.33366 18.3327 5.66699" stroke="#6758C2" stroke-width="1.25" stroke-linecap="round" stroke-linejoin="round"/>
</svg>
