<svg width="100" height="100" viewBox="0 0 100 100" fill="currentColor" xmlns="http://www.w3.org/2000/svg">
<rect width="100" height="100" rx="50" fill-opacity="0.4"/>
<path d="M67.1113 52.0774C66.2432 55.3754 62.1412 57.7059 53.9366 62.3671C46.0054 66.8728 42.04 69.1259 38.8442 68.2202C37.5229 67.8457 36.3191 67.1348 35.3482 66.1552C33 63.786 33 59.1906 33 49.9999C33 40.8091 33 36.2137 35.3482 33.8445C36.3191 32.865 37.5229 32.1539 38.8442 31.7795C42.04 30.8739 46.0054 33.1268 53.9366 37.6327C62.1412 42.2938 66.2432 44.6243 67.1113 47.9223C67.4696 49.2838 67.4696 50.7159 67.1113 52.0774Z"/>
</svg>
